<?xml version="1.0" encoding="utf-8"?>
<!-- Generator: Adobe Illustrator 24.1.2, SVG Export Plug-In . SVG Version: 6.00 Build 0)  -->
<svg version="1.1" id="Layer_1" xmlns="http://www.w3.org/2000/svg" xmlns:xlink="http://www.w3.org/1999/xlink" x="0px" y="0px"
	 viewBox="0 0 67 110" style="enable-background:new 0 0 67 110;" xml:space="preserve">
<g>
	<polygon style="fill:#475B60;" points="61.44,81.2 33.5,90.72 5.56,81.2 2.67,89.69 19.6,95.46 2.67,101.23 5.56,109.72 
		33.5,100.2 61.44,109.72 64.33,101.23 47.4,95.46 64.33,89.69 	"/>
	<path style="fill:#F15128;" d="M33.5,81.3C52,81.3,67,71.26,67,58.87C67,22.09,33.5,0.28,33.5,0.28S0,22.09,0,58.87
		C0,71.26,15,81.3,33.5,81.3z M33.43,15.23c0,0,22.88,16.65,22.88,41.68c0,8.43-10.21,15.27-22.8,15.27
		c-12.59,0-22.8-6.84-22.8-15.27C10.7,31.88,33.43,15.23,33.43,15.23z"/>
	<path style="fill:#F58120;" d="M33.5,72.18c12.59,0,22.8-6.84,22.8-15.27c0-25.03-22.88-41.68-22.88-41.68S10.7,31.88,10.7,56.91
		C10.7,65.35,20.91,72.18,33.5,72.18z M33.44,30.18c0,0,12.1,10.22,12.1,23.12c0,4.35-5.39,9.47-12.03,9.47s-12.03-5.12-12.03-9.47
		C21.47,40.4,33.44,30.18,33.44,30.18z"/>
	<path style="fill:#F9A61A;" d="M33.5,62.77c6.65,0,12.03-5.12,12.03-9.47c0-12.9-12.1-23.12-12.1-23.12S21.47,40.4,21.47,53.3
		C21.47,57.64,26.85,62.77,33.5,62.77z"/>
</g>
</svg>
