<?xml version="1.0" encoding="utf-8"?>
<!-- Generator: Adobe Illustrator 24.1.2, SVG Export Plug-In . SVG Version: 6.00 Build 0)  -->
<svg version="1.1" id="Layer_1" xmlns="http://www.w3.org/2000/svg" xmlns:xlink="http://www.w3.org/1999/xlink" x="0px" y="0px"
	 viewBox="0 0 222 54" style="enable-background:new 0 0 222 54;" xml:space="preserve">
<g>
	<polygon style="fill:#475B60;" points="30.31,39.93 16.53,44.63 2.74,39.93 1.32,44.12 9.67,46.96 1.32,49.81 2.74,54 16.53,49.3 
		30.31,54 31.74,49.81 23.39,46.96 31.74,44.12 	"/>
	<path style="fill:#F15128;" d="M16.53,39.98c9.13,0,16.53-4.96,16.53-11.07C33.06,10.76,16.53,0,16.53,0S0,10.76,0,28.91
		C0,35.02,7.4,39.98,16.53,39.98z M16.49,7.38c0,0,11.29,8.22,11.29,20.57c0,4.16-5.04,7.54-11.25,7.54
		c-6.21,0-11.25-3.37-11.25-7.54C5.28,15.59,16.49,7.38,16.49,7.38z"/>
	<path style="fill:#F58120;" d="M16.53,35.48c6.21,0,11.25-3.37,11.25-7.54c0-12.35-11.29-20.57-11.29-20.57S5.28,15.59,5.28,27.94
		C5.28,32.1,10.32,35.48,16.53,35.48z M16.5,14.75c0,0,5.97,5.04,5.97,11.41c0,2.14-2.66,4.67-5.94,4.67s-5.94-2.53-5.94-4.67
		C10.59,19.79,16.5,14.75,16.5,14.75z"/>
	<path style="fill:#F9A61A;" d="M16.53,30.83c3.28,0,5.94-2.53,5.94-4.67c0-6.36-5.97-11.41-5.97-11.41s-5.91,5.04-5.91,11.41
		C10.59,28.3,13.25,30.83,16.53,30.83z"/>
</g>
<rect x="207.52" y="21.05" transform="matrix(0.7071 0.7071 -0.7071 0.7071 81.6167 -143.0403)" style="fill:#465C5F;" width="11.9" height="11.9"/>
<rect x="43.01" y="25.98" style="fill:#465C5F;" width="164.37" height="2.09"/>
</svg>
